<svg width="24" height="24" viewBox="0 0 24 24" fill="none" xmlns="http://www.w3.org/2000/svg">
<path d="M10.8 2.40002C10.1635 2.40002 9.55303 2.65288 9.10295 3.10297C8.65286 3.55306 8.4 4.1635 8.4 4.80002V14.4C8.4 15.0365 8.65286 15.647 9.10295 16.0971C9.55303 16.5472 10.1635 16.8 10.8 16.8H18C18.6365 16.8 19.247 16.5472 19.6971 16.0971C20.1471 15.647 20.4 15.0365 20.4 14.4V7.69682C20.3999 7.06036 20.1469 6.45001 19.6968 6.00002L16.8 3.10322C16.35 2.65311 15.7397 2.40016 15.1032 2.40002H10.8Z" fill="currentColor"/>
<path d="M3.6 9.59995C3.6 8.96343 3.85285 8.35298 4.30294 7.90289C4.75303 7.45281 5.36348 7.19995 6 7.19995V19.1999H15.6C15.6 19.8365 15.3471 20.4469 14.8971 20.897C14.447 21.3471 13.8365 21.5999 13.2 21.5999H6C5.36348 21.5999 4.75303 21.3471 4.30294 20.897C3.85285 20.4469 3.6 19.8365 3.6 19.1999V9.59995Z" fill="currentColor"/>
</svg>
