<svg width="18" height="18" viewBox="0 0 18 18" fill="none" xmlns="http://www.w3.org/2000/svg">
<path fill-rule="evenodd" clip-rule="evenodd" d="M3.67469 8.09999H5.42609C5.50619 6.70859 5.77079 5.42699 6.17939 4.39379C5.52149 4.79691 4.95756 5.33626 4.52553 5.97554C4.09349 6.61482 3.80337 7.33921 3.67469 8.09999ZM8.99999 1.79999C7.09043 1.79999 5.25908 2.55856 3.90882 3.90882C2.55856 5.25908 1.79999 7.09043 1.79999 8.99999C1.79999 10.9095 2.55856 12.7409 3.90882 14.0912C5.25908 15.4414 7.09043 16.2 8.99999 16.2C10.9095 16.2 12.7409 15.4414 14.0912 14.0912C15.4414 12.7409 16.2 10.9095 16.2 8.99999C16.2 7.09043 15.4414 5.25908 14.0912 3.90882C12.7409 2.55856 10.9095 1.79999 8.99999 1.79999ZM8.99999 3.59999C8.93159 3.59999 8.79119 3.62879 8.58149 3.83579C8.36729 4.04639 8.13419 4.39649 7.91819 4.89959C7.56809 5.71589 7.31249 6.82739 7.22879 8.09999H10.7712C10.6875 6.82739 10.4319 5.71589 10.0818 4.89959C9.86579 4.39559 9.63179 4.04639 9.41849 3.83579C9.20879 3.62879 9.06839 3.59999 8.99999 3.59999ZM12.5739 8.09999C12.4938 6.70859 12.2292 5.42699 11.8206 4.39379C12.4785 4.79691 13.0424 5.33626 13.4744 5.97554C13.9065 6.61482 14.1966 7.33921 14.3253 8.09999H12.5739ZM10.7712 9.89999H7.22879C7.31249 11.1726 7.56809 12.2841 7.91819 13.1004C8.13419 13.6044 8.36819 13.9536 8.58149 14.1642C8.79119 14.3712 8.93159 14.4 8.99999 14.4C9.06839 14.4 9.20879 14.3712 9.41849 14.1642C9.63269 13.9536 9.86669 13.6035 10.0818 13.1004C10.4319 12.2841 10.6875 11.1726 10.7712 9.89999ZM11.8206 13.6062C12.2292 12.5739 12.4938 11.2914 12.5739 9.89999H14.3253C14.1966 10.6608 13.9065 11.3852 13.4744 12.0244C13.0424 12.6637 12.4785 13.2031 11.8206 13.6062ZM6.17939 13.6062C5.77079 12.573 5.50619 11.2914 5.42699 9.89999H3.67469C3.80337 10.6608 4.09349 11.3852 4.52553 12.0244C4.95756 12.6637 5.52149 13.2031 6.17939 13.6062Z" fill="currentColor"/>
</svg>
