<svg width="18" height="18" viewBox="0 0 18 18" fill="none" xmlns="http://www.w3.org/2000/svg">
<path d="M1.79999 2.69999C1.79999 2.46129 1.89481 2.23237 2.06359 2.06359C2.23237 1.89481 2.46129 1.79999 2.69999 1.79999H4.63769C4.85072 1.80009 5.05682 1.87575 5.21931 2.01352C5.3818 2.15129 5.49015 2.34224 5.52509 2.55239L6.19109 6.54389C6.22291 6.73398 6.19286 6.92927 6.10537 7.10101C6.01788 7.27275 5.87757 7.41187 5.70509 7.49789L4.31189 8.19359C4.81148 9.43167 5.55554 10.5563 6.49959 11.5004C7.44363 12.4444 8.5683 13.1885 9.80639 13.6881L10.503 12.2949C10.589 12.1226 10.7279 11.9824 10.8995 11.8949C11.071 11.8074 11.2661 11.7773 11.4561 11.8089L15.4476 12.4749C15.6577 12.5098 15.8487 12.6182 15.9865 12.7807C16.1242 12.9432 16.1999 13.1493 16.2 13.3623V15.3C16.2 15.5387 16.1052 15.7676 15.9364 15.9364C15.7676 16.1052 15.5387 16.2 15.3 16.2H13.5C7.03799 16.2 1.79999 10.962 1.79999 4.49999V2.69999Z" fill="currentColor"/>
</svg>
