<?xml version="1.0" ?><svg id="Flat" viewBox="0 0 128 128" xmlns="http://www.w3.org/2000/svg"><title/><path d="M45.041,16.956a22.581,22.581,0,0,1,17.345,8.308,2.006,2.006,0,0,0,3.121,0,22.582,22.582,0,0,1,17.345-8.308c12.87,0,21.635,11.2,21.635,25.013,0,8.261-4.4,21.631-13.018,29.687C79.2,83.126,68.777,86.078,65.238,86.787a6.523,6.523,0,0,1-2.578,0c-3.539-.71-13.967-3.662-26.236-15.132C27.807,63.6,23.406,50.23,23.406,41.969,23.406,28.155,32.171,16.956,45.041,16.956Z" style="fill:#ff5581"/><path d="M108.742,79.232c-3.96.657-6.687,7.423-9.3,10.542a2.976,2.976,0,0,0-3.384-4.631c-1.807.5-7.31,3.438-10.7,5.544a28.2,28.2,0,0,0-11.624,14.421c-1.255,3.212-3.578,13.748-2.818,17.771a2.162,2.162,0,0,0,.764,1.361c1.541,1.309,9.911,1.385,11.67.552a2.2,2.2,0,0,0,1.3-1.608c.32-1.288.453-4.724,1.655-7.051,2.227-4.312,8.706-8.509,11.334-11.109,3.867-3.826,13.887-19.672,14.191-23.44C111.951,80.082,110.34,78.967,108.742,79.232Z" style="fill:#ff8c83"/><path d="M54.185,105.108A28.192,28.192,0,0,0,42.56,90.687c-3.393-2.106-8.9-5.04-10.7-5.544a2.975,2.975,0,0,0-3.384,4.631c-2.613-3.119-5.339-9.885-9.3-10.542-1.6-.265-3.209.85-3.088,2.352.3,3.768,10.324,19.614,14.192,23.44,2.628,2.6,9.107,6.8,11.333,11.109,1.2,2.327,1.336,5.763,1.655,7.051a2.2,2.2,0,0,0,1.3,1.608c1.758.833,10.128.757,11.67-.552A2.162,2.162,0,0,0,57,122.879C57.763,118.856,55.44,108.32,54.185,105.108Z" style="fill:#ff8c83"/><path d="M67.172,57.308a.964.964,0,0,1,.942,1.133,4.218,4.218,0,0,1-8.335,0,.964.964,0,0,1,.942-1.133Z" style="fill:#fff"/><path d="M121.479,56.305l-2.872-1.57-1.571-2.873a1.615,1.615,0,0,0-1.416-.839h0a1.617,1.617,0,0,0-1.416.84l-1.571,2.872-2.871,1.57a1.614,1.614,0,0,0,0,2.833l2.872,1.571,1.57,2.87a1.612,1.612,0,0,0,1.416.841h0a1.614,1.614,0,0,0,1.417-.84l1.57-2.871,2.872-1.571a1.615,1.615,0,0,0,0-2.833Z" style="fill:#ffb95c"/><path d="M33.712,6.821l-1.425-.78-.78-1.426a1.347,1.347,0,0,0-2.363,0l-.78,1.426-1.425.779a1.348,1.348,0,0,0,0,2.365l1.426.779.78,1.426a1.347,1.347,0,0,0,2.363,0l.78-1.425,1.426-.78a1.347,1.347,0,0,0,0-2.363Z" style="fill:#ffc67b"/><path d="M19.026,20.675l-2.214-1.211L15.6,17.25a1.492,1.492,0,0,0-2.619,0l-1.212,2.215L9.553,20.675a1.494,1.494,0,0,0,0,2.62l2.215,1.211,1.212,2.214a1.492,1.492,0,0,0,2.619,0l1.212-2.215L19.026,23.3a1.493,1.493,0,0,0,0-2.62Z" style="fill:#ffb95c"/><path d="M90.336,100.174a1.5,1.5,0,0,1-1.431-1.952c.959-3.038,3.644-4.927,6.013-6.593a16.192,16.192,0,0,0,3.34-2.776,1.5,1.5,0,1,1,2.369,1.841,18.125,18.125,0,0,1-3.983,3.389c-2.077,1.46-4.224,2.971-4.877,5.042A1.5,1.5,0,0,1,90.336,100.174Z" style="fill:#ed4559"/><path d="M37.58,100.174a1.5,1.5,0,0,1-1.43-1.049c-.653-2.071-2.8-3.582-4.878-5.042a18.1,18.1,0,0,1-3.982-3.389,1.5,1.5,0,1,1,2.369-1.841A16.192,16.192,0,0,0,33,91.629c2.369,1.666,5.054,3.555,6.012,6.593a1.5,1.5,0,0,1-1.431,1.952Z" style="fill:#ed4559"/><path d="M55.78,50.2a1.5,1.5,0,0,1-1.092-.471A3.914,3.914,0,0,0,50.53,49.3,1.5,1.5,0,0,1,48.7,46.917c1.743-1.339,5.939-1.615,8.169.749A1.5,1.5,0,0,1,55.78,50.2Z" style="fill:#dd375f"/><path d="M72.113,50.2a1.5,1.5,0,0,1-1.091-2.529c2.229-2.363,6.427-2.088,8.169-.749A1.5,1.5,0,0,1,77.363,49.3a3.914,3.914,0,0,0-4.158.428A1.5,1.5,0,0,1,72.113,50.2Z" style="fill:#dd375f"/></svg>