<svg width="65" height="65" viewBox="0 0 65 65" fill="none" xmlns="http://www.w3.org/2000/svg">
<path d="M65 59.8296C65 62.6364 62.6364 65 59.8296 65C58.3523 65 57.0228 64.409 55.9886 63.375L47.7159 54.3636L39.4432 45.3522C38.8522 44.7613 38.8522 43.875 39.4432 43.284L43.2842 39.4431C43.8751 38.8521 44.7614 38.8521 45.3524 39.4431L63.375 56.1364C64.409 57.0228 65 58.5 65 59.8296Z" fill="#D1835D"/>
<path d="M39.8784 42.8037L42.8032 39.8789L38.416 35.4918L35.4912 38.4165L39.8784 42.8037Z" fill="#B0C4D8"/>
<path d="M40.625 40.625L41.3636 41.3636L42.8408 39.8864L38.409 35.4546L35.4544 38.4092L37.6704 40.625C38.5568 39.7386 39.7386 39.7386 40.625 40.625Z" fill="#99B4CD"/>
<path d="M22.159 0C9.89777 0 0 9.89777 0 22.159C0 34.4203 9.89777 44.3181 22.159 44.3181C34.4203 44.3181 44.3181 34.4203 44.3181 22.159C44.3181 9.89777 34.4204 0 22.159 0ZM22.159 39.8864C12.409 39.8864 4.43181 31.9092 4.43181 22.1592C4.43181 12.4092 12.409 4.43181 22.159 4.43181C31.909 4.43181 39.8863 12.409 39.8863 22.159C39.8863 31.909 31.909 39.8864 22.159 39.8864Z" fill="#5E727A"/>
<path d="M22.159 39.8862C31.9495 39.8862 39.8863 31.9495 39.8863 22.159C39.8863 12.3685 31.9495 4.43179 22.159 4.43179C12.3685 4.43179 4.43179 12.3685 4.43179 22.159C4.43179 31.9495 12.3685 39.8862 22.159 39.8862Z" fill="#F0FBFF"/>
<path d="M13.4432 24.2272C14.1818 18.6136 18.6136 14.1818 24.2272 13.4432H24.375C26.8864 13.1478 27.034 9.60223 24.6704 9.15917C23.1932 8.86375 21.7158 8.86375 20.2386 9.01139C14.4772 9.89778 9.89764 14.4774 9.15903 20.091C8.86361 21.5682 9.01126 23.1932 9.3068 24.5228C9.75 27.0342 13.2954 26.7387 13.5908 24.2274C13.4432 24.375 13.4432 24.2272 13.4432 24.2272Z" fill="#8C9297" fill-opacity="0.6"/>
<path d="M5.90902 23.6364C5.90902 13.8864 13.8862 5.90916 23.6363 5.90916C28.2158 5.90916 32.2044 7.68193 35.4544 10.341C32.2044 6.64777 27.4772 4.43193 22.159 4.43193C12.409 4.43193 4.43179 12.4092 4.43179 22.1592C4.43179 27.4774 6.79541 32.2046 10.3408 35.4546C7.68179 32.2046 5.90902 28.216 5.90902 23.6364Z" fill="#4C9CD6"/>
<path d="M22.159 44.3182C34.4204 44.3182 44.3181 34.4204 44.3181 22.1592C43.5794 22.1592 42.8408 22.7501 42.8408 23.6364C42.5454 28.6592 40.3294 33.2386 36.9318 36.6364C33.534 40.1818 28.8068 42.3978 23.6364 42.841C22.75 42.841 22.159 43.5796 22.159 44.3182Z" fill="#B0C9DB"/>
<path d="M22.159 0C9.89777 0 0 9.89777 0 22.159C0.738613 22.159 1.47723 21.5681 1.47723 20.6818C1.77277 15.8068 3.84097 11.375 6.94319 8.125C10.4886 4.43181 15.3636 1.92042 20.6818 1.47723C21.5682 1.47723 22.159 0.738613 22.159 0Z" fill="#E2E7F0"/>
<path d="M63.2273 55.9886L62.3409 55.25C63.0795 56.1364 63.5227 57.3182 63.5227 58.5C63.5227 60.4204 61.1591 61.159 59.8295 59.8296L44.3182 44.3182C43.4318 43.4318 42.1023 43.4318 41.216 44.3182L39.7388 45.7954L55.841 63.0795C56.7274 63.9658 57.9092 64.7045 59.091 64.8522C60.716 65 62.341 64.409 63.375 63.375C64.4091 62.341 65 60.716 64.8523 59.091C64.8523 57.909 64.1136 56.875 63.2273 55.9886Z" fill="#99523C"/>
<path d="M48.0114 45.7954C47.8636 45.7954 47.5682 45.7954 47.4204 45.6476L43.7272 41.9544C43.4318 41.659 43.4318 41.2158 43.7272 40.9204C44.0226 40.625 44.4658 40.625 44.7612 40.9204L48.4544 44.6136C48.7499 44.909 48.7499 45.3522 48.4544 45.6476C48.4546 45.7954 48.159 45.7954 48.0114 45.7954Z" fill="#C97629"/>
</svg>
