<?xml version="1.0" ?><svg id="Layer_1" style="enable-background:new 0 0 66 66;" version="1.1" viewBox="0 0 66 66" xml:space="preserve" xmlns="http://www.w3.org/2000/svg" xmlns:xlink="http://www.w3.org/1999/xlink"><style type="text/css">
	.st0{fill:#4E6575;}
	.st1{opacity:0.4;fill:#FFFFFF;}
	.st2{opacity:0.3;fill:#FFFFFF;}
	.st3{fill:#7CB5E8;}
	.st4{fill:#FFAB03;}
	.st5{opacity:0.2;fill:#EFEFEF;}
	.st6{fill:#FFFFFF;}
	.st7{fill:#8ABA55;}
	.st8{fill:#5592CB;}
	.st9{fill:#EF4A51;}
	.st10{fill:#E2E2E2;}
	.st11{opacity:0.5;fill:#FFFFFF;}
	.st12{fill:#7CA444;}
	.st13{fill:#EFEFEF;}
	.st14{fill:#E2E4E5;}
	.st15{fill:none;stroke:#FFFFFF;stroke-width:2.7334;stroke-linecap:round;stroke-linejoin:round;stroke-miterlimit:10;}
	.st16{fill:#E39A17;}
	.st17{fill:#5E7588;}
	.st18{fill:#556B7C;}
	.st19{fill:none;stroke:#000000;stroke-width:2;stroke-linecap:round;stroke-linejoin:round;stroke-miterlimit:10;}
	.st20{opacity:0.61;fill:#F2F2F2;}
	.st21{fill:#DD3A46;}
	.st22{fill:#D8D8D8;}
	.st23{fill:#72973B;}
	.st24{fill:#F2F2F2;}
	.st25{fill:none;stroke:#000000;stroke-width:2;stroke-miterlimit:10;}
	.st26{opacity:0.62;fill:#FFFFFF;}
	.st27{fill:#C4C4C4;}
	.st28{fill:#5592CB;stroke:#000000;stroke-width:2;stroke-linecap:round;stroke-linejoin:round;stroke-miterlimit:10;}
	.st29{fill:none;}
	.st30{fill:#9ACFF7;}
	.st31{fill:#CECFCF;}
	.st32{fill:#8DC9F7;}
	.st33{opacity:0.61;fill:#FFFFFF;}
	.st34{fill:#CACBCB;}
	.st35{fill:#7BA74C;}
	.st36{fill:#C5C5C5;}
	.st37{opacity:0.4;}
	.st38{fill:#D8D8D8;stroke:#000000;stroke-width:2;stroke-linecap:round;stroke-linejoin:round;stroke-miterlimit:10;}
	.st39{fill:none;stroke:#4E6575;stroke-width:2;stroke-linecap:round;stroke-linejoin:round;stroke-miterlimit:10;}
	.st40{fill:#74A5CE;}
	.st41{opacity:0.62;fill:#F2F2F2;}
	.st42{opacity:0.3;fill:#F2F2F2;}
	.st43{fill:#999999;}
	.st44{fill:#4E6575;stroke:#000000;stroke-width:2;stroke-linecap:round;stroke-linejoin:round;stroke-miterlimit:10;}
	.st45{fill:#D5D6D5;}
	.st46{opacity:0.5;fill:#7CA444;}
	.st47{fill:#475B6A;}
	.st48{fill:#7DAA4D;}
	.st49{opacity:0.3;}
	.st50{opacity:0.65;fill:#FFFFFF;stroke:#FFFFFF;stroke-miterlimit:10;}
</style><g><path class="st40" d="M4.6,29.31v32.14C4.6,63.41,6.19,65,8.14,65h49.72c1.96,0,3.54-1.59,3.54-3.55V29.31H4.6z"/><path class="st1" d="M61.4,29.31v28.25H43.51c-15.6,0-28.25-12.65-28.25-28.25v0H61.4z"/><path class="st3" d="M60.29,25.01L57,12.23c-0.4-1.56-1.81-2.65-3.43-2.65H12.43c-1.62,0-3.02,1.09-3.43,2.65L4.6,29.31H61.4   L60.29,25.01z"/><path class="st1" d="M60.29,25.01H32.65c-8.07,0-13.98-7.62-11.96-15.43l0,0h32.88c1.62,0,3.03,1.09,3.43,2.65L60.29,25.01z"/><path class="st0" d="M44.45,17.02c0,0,0,0-0.01,0H21.56c-0.63,0.03-1.17,0.29-1.59,0.7c-0.44,0.45-0.7,1.05-0.7,1.72   c0,1.34,1.09,2.42,2.42,2.42h22.64c0.67,0,1.28-0.27,1.72-0.7c0.44-0.44,0.7-1.04,0.7-1.71C46.75,18.15,45.73,17.09,44.45,17.02z"/><g><path class="st4" d="M44.17,12.16c0,0.24-0.01,0.48-0.03,0.71c-0.01,0.26-0.04,0.54-0.08,0.8c-0.03,0.2-0.06,0.39-0.1,0.59    c-0.04,0.23-0.09,0.45-0.15,0.68c-0.11,0.44-0.26,0.88-0.43,1.29c-0.02,0.08-0.05,0.14-0.09,0.2c-0.14,0.35-0.31,0.7-0.49,1.03    c0.01,0.01,0.01,0.01,0,0.01c-0.11,0.21-0.24,0.43-0.38,0.64c-0.13,0.21-0.26,0.41-0.41,0.61c-0.14,0.19-0.28,0.36-0.41,0.54    c-0.85,1.04-1.9,1.92-3.08,2.59H27.49c-2.14-1.22-3.85-3.13-4.8-5.43c-0.55-1.32-0.85-2.76-0.85-4.27c0-0.29,0.01-0.56,0.04-0.85    c0.06-0.85,0.23-1.68,0.46-2.47c0.09-0.25,0.16-0.49,0.26-0.71c0.09-0.25,0.2-0.5,0.31-0.74c0.11-0.24,0.24-0.48,0.38-0.71    c0.25-0.46,0.55-0.9,0.88-1.33c0.16-0.2,0.33-0.4,0.5-0.6c0.01-0.03,0.04-0.06,0.08-0.09c0.16-0.18,0.31-0.33,0.48-0.49    c0.19-0.19,0.39-0.36,0.59-0.53c0.2-0.18,0.41-0.34,0.63-0.5c0.21-0.15,0.43-0.3,0.65-0.44c0.2-0.13,0.4-0.24,0.6-0.35    c0.05-0.04,0.11-0.06,0.18-0.09c0.21-0.11,0.43-0.21,0.64-0.31c0.18-0.08,0.35-0.15,0.53-0.21c0.16-0.08,0.34-0.13,0.51-0.19    c0.38-0.13,0.75-0.23,1.13-0.3c0.19-0.05,0.38-0.08,0.56-0.11C31.81,1.05,32.4,1,33,1C39.17,1,44.17,6.01,44.17,12.16z"/><path class="st1" d="M44.17,12.17c0,1.92-0.49,3.72-1.35,5.3v0.01c-1.38,0.6-2.89,0.94-4.49,0.94c-6.15,0-11.17-5.01-11.17-11.17    c0-1.92,0.49-3.72,1.34-5.3C29.88,1.34,31.4,1,33,1C39.15,1,44.17,6.01,44.17,12.17z"/><path class="st0" d="M33,11.16c-0.8,0-1.46-0.65-1.46-1.46S32.2,8.25,33,8.25s1.46,0.65,1.46,1.46c0,0.55,0.45,1,1,1s1-0.45,1-1    c0-1.56-1.04-2.86-2.46-3.29V5.55c0-0.55-0.45-1-1-1s-1,0.45-1,1v0.86c-1.42,0.43-2.46,1.74-2.46,3.29c0,1.91,1.55,3.46,3.46,3.46    c0.8,0,1.46,0.65,1.46,1.46s-0.65,1.46-1.46,1.46s-1.46-0.65-1.46-1.46c0-0.55-0.45-1-1-1s-1,0.45-1,1c0,1.56,1.04,2.86,2.46,3.29    v0.86c0,0.55,0.45,1,1,1s1-0.45,1-1v-0.86c1.42-0.43,2.46-1.74,2.46-3.29C36.46,12.71,34.91,11.16,33,11.16z"/></g></g></svg>