<svg width="138" height="156" viewBox="0 0 138 156" fill="none" xmlns="http://www.w3.org/2000/svg">
<path d="M0.151512 69.0545V146.97C0.151512 151.721 4.00606 155.576 8.73333 155.576H129.267C134.018 155.576 137.848 151.721 137.848 146.97V69.0545H0.151512Z" fill="#257582"/>
<path opacity="0.4" d="M137.848 69.0545V137.539H94.4788C56.6606 137.539 25.9939 106.873 25.9939 69.0545H137.848Z" fill="white"/>
<path d="M135.158 58.6303L127.182 27.6485C126.212 23.8667 122.794 21.2242 118.867 21.2242H19.1333C15.2061 21.2242 11.8121 23.8667 10.8182 27.6485L0.151512 69.0546H137.848L135.158 58.6303Z" fill="#4C96A3"/>
<path opacity="0.4" d="M135.158 58.6303H68.1515C48.5879 58.6303 34.2606 40.1576 39.1576 21.2242H118.867C122.794 21.2242 126.212 23.8667 127.182 27.6485L135.158 58.6303Z" fill="white"/>
<path d="M96.7576 39.2606C96.7576 39.2606 96.7576 39.2606 96.7333 39.2606H41.2667C39.7394 39.3333 38.4303 39.9636 37.4121 40.9576C36.3454 42.0485 35.7151 43.503 35.7151 45.1273C35.7151 48.3758 38.3576 50.9939 41.5818 50.9939H96.4667C98.0909 50.9939 99.5697 50.3394 100.636 49.297C101.703 48.2303 102.333 46.7758 102.333 45.1515C102.333 42 99.8606 39.4303 96.7576 39.2606Z" fill="#4E6575"/>
<path d="M96.0788 27.4788C96.0788 28.0606 96.0545 28.6424 96.0061 29.2C95.9818 29.8303 95.9091 30.5091 95.8121 31.1394C95.7394 31.6242 95.6667 32.0848 95.5697 32.5697C95.4727 33.1273 95.3515 33.6606 95.2061 34.2182C94.9394 35.2848 94.5758 36.3515 94.1636 37.3455C94.1151 37.5394 94.0424 37.6848 93.9454 37.8303C93.6061 38.6788 93.1939 39.5273 92.7576 40.3273C92.7818 40.3515 92.7818 40.3515 92.7576 40.3515C92.4909 40.8606 92.1757 41.3939 91.8364 41.903C91.5212 42.4121 91.2061 42.897 90.8424 43.3818C90.503 43.8424 90.1636 44.2545 89.8485 44.6909C87.7879 47.2121 85.2424 49.3455 82.3818 50.9697H55.6424C50.4545 48.0121 46.3091 43.3818 44.0061 37.8061C42.6727 34.6061 41.9454 31.1151 41.9454 27.4545C41.9454 26.7515 41.9697 26.097 42.0424 25.3939C42.1879 23.3333 42.6 21.3212 43.1576 19.4061C43.3757 18.8 43.5454 18.2182 43.7879 17.6848C44.0061 17.0788 44.2727 16.4727 44.5394 15.8909C44.8061 15.3091 45.1212 14.7273 45.4606 14.1697C46.0667 13.0545 46.7939 11.9879 47.5939 10.9455C47.9818 10.4606 48.3939 9.97575 48.8061 9.49091C48.8303 9.41818 48.903 9.34545 49 9.27273C49.3879 8.83636 49.7515 8.47272 50.1636 8.08485C50.6242 7.62424 51.1091 7.21212 51.5939 6.8C52.0788 6.36363 52.5879 5.97576 53.1212 5.58788C53.6303 5.22424 54.1636 4.8606 54.697 4.52121C55.1818 4.20606 55.6667 3.93939 56.1515 3.67272C56.2727 3.57576 56.4182 3.52727 56.5879 3.45454C57.097 3.18788 57.6303 2.94545 58.1394 2.70303C58.5758 2.50909 58.9879 2.33939 59.4242 2.19394C59.8121 2 60.2485 1.87879 60.6606 1.73333C61.5818 1.41818 62.4788 1.17576 63.4 1.00606C63.8606 0.884846 64.3212 0.812119 64.7576 0.739392C66.1151 0.545452 67.5454 0.42424 69 0.42424C83.9576 0.42424 96.0788 12.5697 96.0788 27.4788Z" fill="#FFAB03"/>
<path opacity="0.4" d="M96.0788 27.503C96.0788 32.1576 94.8909 36.5212 92.8061 40.3515V40.3758C89.4606 41.8303 85.8 42.6545 81.9212 42.6545C67.0121 42.6545 54.8424 30.5091 54.8424 15.5758C54.8424 10.9212 56.0303 6.55757 58.0909 2.72727C61.4364 1.24848 65.1212 0.42424 69 0.42424C83.9091 0.42424 96.0788 12.5697 96.0788 27.503Z" fill="white"/>
<path d="M69 25.0545C67.0606 25.0545 65.4606 23.4788 65.4606 21.5151C65.4606 19.5515 67.0606 18 69 18C70.9394 18 72.5394 19.5758 72.5394 21.5394C72.5394 22.8727 73.6303 23.9636 74.9636 23.9636C76.297 23.9636 77.3879 22.8727 77.3879 21.5394C77.3879 17.7576 74.8667 14.6061 71.4242 13.5636V11.4545C71.4242 10.1212 70.3333 9.0303 69 9.0303C67.6667 9.0303 66.5757 10.1212 66.5757 11.4545V13.5394C63.1333 14.5818 60.6121 17.7576 60.6121 21.5151C60.6121 26.1455 64.3697 29.903 69 29.903C70.9394 29.903 72.5394 31.4788 72.5394 33.4424C72.5394 35.4061 70.9636 36.9818 69 36.9818C67.0364 36.9818 65.4606 35.4061 65.4606 33.4424C65.4606 32.1091 64.3697 31.0182 63.0364 31.0182C61.703 31.0182 60.6121 32.1091 60.6121 33.4424C60.6121 37.2242 63.1333 40.3758 66.5757 41.4182V43.503C66.5757 44.8364 67.6667 45.9273 69 45.9273C70.3333 45.9273 71.4242 44.8364 71.4242 43.503V41.4182C74.8667 40.3758 77.3879 37.2 77.3879 33.4424C77.3879 28.8121 73.6303 25.0545 69 25.0545Z" fill="#4E6575"/>
</svg>
