<svg width="160" height="160" viewBox="0 0 160 160" fill="none" xmlns="http://www.w3.org/2000/svg">
<path d="M11.1515 71.0545V148.97C11.1515 153.721 15.0061 157.576 19.7333 157.576H140.267C145.018 157.576 148.848 153.721 148.848 148.97V71.0545H11.1515Z" fill="#74A5CE"/>
<path opacity="0.4" d="M148.848 71.0545V139.539H105.479C67.6606 139.539 36.9939 108.873 36.9939 71.0545H148.848Z" fill="white"/>
<path d="M146.158 60.6303L138.182 29.6485C137.212 25.8667 133.794 23.2242 129.867 23.2242H30.1333C26.2061 23.2242 22.8121 25.8667 21.8182 29.6485L11.1515 71.0546H148.848L146.158 60.6303Z" fill="#7CB5E8"/>
<path opacity="0.4" d="M146.158 60.6303H79.1515C59.5879 60.6303 45.2606 42.1576 50.1576 23.2242H129.867C133.794 23.2242 137.212 25.8667 138.182 29.6485L146.158 60.6303Z" fill="white"/>
<path d="M107.758 41.2606C107.758 41.2606 107.758 41.2606 107.733 41.2606H52.2667C50.7394 41.3333 49.4303 41.9636 48.4121 42.9576C47.3454 44.0485 46.7151 45.503 46.7151 47.1273C46.7151 50.3758 49.3576 52.9939 52.5818 52.9939H107.467C109.091 52.9939 110.57 52.3394 111.636 51.297C112.703 50.2303 113.333 48.7758 113.333 47.1515C113.333 44 110.861 41.4303 107.758 41.2606Z" fill="#4E6575"/>
<path d="M107.079 29.4788C107.079 30.0606 107.055 30.6424 107.006 31.2C106.982 31.8303 106.909 32.5091 106.812 33.1394C106.739 33.6242 106.667 34.0848 106.57 34.5697C106.473 35.1273 106.352 35.6606 106.206 36.2182C105.939 37.2848 105.576 38.3515 105.164 39.3455C105.115 39.5394 105.042 39.6848 104.945 39.8303C104.606 40.6788 104.194 41.5273 103.758 42.3273C103.782 42.3515 103.782 42.3515 103.758 42.3515C103.491 42.8606 103.176 43.3939 102.836 43.903C102.521 44.4121 102.206 44.897 101.842 45.3818C101.503 45.8424 101.164 46.2545 100.848 46.6909C98.7879 49.2121 96.2424 51.3455 93.3818 52.9697H66.6424C61.4545 50.0121 57.3091 45.3818 55.0061 39.8061C53.6727 36.6061 52.9454 33.1151 52.9454 29.4545C52.9454 28.7515 52.9697 28.097 53.0424 27.3939C53.1879 25.3333 53.6 23.3212 54.1576 21.4061C54.3757 20.8 54.5454 20.2182 54.7879 19.6848C55.0061 19.0788 55.2727 18.4727 55.5394 17.8909C55.8061 17.3091 56.1212 16.7273 56.4606 16.1697C57.0667 15.0545 57.7939 13.9879 58.5939 12.9455C58.9818 12.4606 59.3939 11.9758 59.8061 11.4909C59.8303 11.4182 59.903 11.3455 60 11.2727C60.3879 10.8364 60.7515 10.4727 61.1636 10.0848C61.6242 9.62424 62.1091 9.21212 62.5939 8.8C63.0788 8.36363 63.5879 7.97576 64.1212 7.58788C64.6303 7.22424 65.1636 6.8606 65.697 6.52121C66.1818 6.20606 66.6667 5.93939 67.1515 5.67272C67.2727 5.57576 67.4182 5.52727 67.5879 5.45454C68.097 5.18788 68.6303 4.94545 69.1394 4.70303C69.5758 4.50909 69.9879 4.33939 70.4242 4.19394C70.8121 4 71.2485 3.87879 71.6606 3.73333C72.5818 3.41818 73.4788 3.17576 74.4 3.00606C74.8606 2.88485 75.3212 2.81212 75.7576 2.73939C77.1151 2.54545 78.5454 2.42424 80 2.42424C94.9576 2.42424 107.079 14.5697 107.079 29.4788Z" fill="#FFAB03"/>
<path opacity="0.4" d="M107.079 29.503C107.079 34.1576 105.891 38.5212 103.806 42.3515V42.3758C100.461 43.8303 96.8 44.6545 92.9212 44.6545C78.0121 44.6545 65.8424 32.5091 65.8424 17.5758C65.8424 12.9212 67.0303 8.55757 69.0909 4.72727C72.4364 3.24848 76.1212 2.42424 80 2.42424C94.9091 2.42424 107.079 14.5697 107.079 29.503Z" fill="white"/>
<path d="M80 27.0545C78.0606 27.0545 76.4606 25.4788 76.4606 23.5151C76.4606 21.5515 78.0606 20 80 20C81.9394 20 83.5394 21.5758 83.5394 23.5394C83.5394 24.8727 84.6303 25.9636 85.9636 25.9636C87.297 25.9636 88.3879 24.8727 88.3879 23.5394C88.3879 19.7576 85.8667 16.6061 82.4242 15.5636V13.4545C82.4242 12.1212 81.3333 11.0303 80 11.0303C78.6667 11.0303 77.5757 12.1212 77.5757 13.4545V15.5394C74.1333 16.5818 71.6121 19.7576 71.6121 23.5151C71.6121 28.1455 75.3697 31.903 80 31.903C81.9394 31.903 83.5394 33.4788 83.5394 35.4424C83.5394 37.4061 81.9636 38.9818 80 38.9818C78.0364 38.9818 76.4606 37.4061 76.4606 35.4424C76.4606 34.1091 75.3697 33.0182 74.0364 33.0182C72.703 33.0182 71.6121 34.1091 71.6121 35.4424C71.6121 39.2242 74.1333 42.3758 77.5757 43.4182V45.503C77.5757 46.8364 78.6667 47.9273 80 47.9273C81.3333 47.9273 82.4242 46.8364 82.4242 45.503V43.4182C85.8667 42.3758 88.3879 39.2 88.3879 35.4424C88.3879 30.8121 84.6303 27.0545 80 27.0545Z" fill="#4E6575"/>
</svg>
