<svg width="128" height="128" viewBox="0 0 128 128" fill="none" xmlns="http://www.w3.org/2000/svg">
<path d="M45.041 16.956C48.3654 16.9786 51.6439 17.735 54.6422 19.1711C57.6405 20.6073 60.2847 22.6878 62.386 25.264C62.574 25.4968 62.8118 25.6846 63.0818 25.8135C63.3518 25.9425 63.6473 26.0095 63.9465 26.0095C64.2457 26.0095 64.5412 25.9425 64.8112 25.8135C65.0812 25.6846 65.319 25.4968 65.507 25.264C67.6083 22.6878 70.2526 20.6074 73.2509 19.1712C76.2492 17.7351 79.5276 16.9787 82.852 16.956C95.722 16.956 104.487 28.156 104.487 41.969C104.487 50.23 100.087 63.6 91.469 71.656C79.2 83.126 68.777 86.078 65.238 86.787C64.3872 86.9585 63.5108 86.9585 62.66 86.787C59.121 86.077 48.693 83.125 36.424 71.655C27.807 63.6 23.406 50.23 23.406 41.969C23.406 28.155 32.171 16.956 45.041 16.956Z" fill="#FF5581"/>
<path d="M108.742 79.232C104.782 79.889 102.055 86.655 99.442 89.774C99.8457 89.2637 100.071 88.6351 100.083 87.9845C100.096 87.3339 99.8948 86.6972 99.5109 86.1718C99.127 85.6464 98.5814 85.2613 97.9578 85.0755C97.3342 84.8897 96.6669 84.9134 96.058 85.143C94.251 85.643 88.748 88.581 85.358 90.687C79.9701 94.0481 75.8744 99.1293 73.734 105.108C72.479 108.32 70.156 118.856 70.916 122.879C70.9923 123.412 71.2647 123.897 71.68 124.24C73.221 125.549 81.591 125.625 83.35 124.792C83.6819 124.651 83.974 124.431 84.2007 124.15C84.4274 123.87 84.5817 123.538 84.65 123.184C84.97 121.896 85.103 118.46 86.305 116.133C88.532 111.821 95.011 107.624 97.639 105.024C101.506 101.198 111.526 85.352 111.83 81.584C111.951 80.082 110.34 78.967 108.742 79.232Z" fill="#FF8C83"/>
<path d="M54.185 105.108C52.0449 99.1289 47.9487 94.0475 42.56 90.687C39.167 88.581 33.66 85.647 31.86 85.143C31.251 84.9125 30.5833 84.8882 29.9592 85.0737C29.3351 85.2593 28.789 85.6444 28.4049 86.1702C28.0207 86.6959 27.8197 87.3331 27.8325 87.9841C27.8454 88.6351 28.0714 89.2639 28.476 89.774C25.863 86.655 23.137 79.889 19.176 79.232C17.576 78.967 15.967 80.082 16.088 81.584C16.388 85.352 26.412 101.198 30.28 105.024C32.908 107.624 39.387 111.824 41.613 116.133C42.813 118.46 42.949 121.896 43.268 123.184C43.3363 123.538 43.4906 123.87 43.7173 124.15C43.944 124.431 44.2361 124.651 44.568 124.792C46.326 125.625 54.696 125.549 56.238 124.24C56.6525 123.897 56.9242 123.412 57 122.879C57.763 118.856 55.44 108.32 54.185 105.108Z" fill="#FF8C83"/>
<path d="M67.172 57.308C67.3123 57.309 67.4507 57.3407 67.5775 57.4007C67.7043 57.4608 67.8165 57.5478 67.9062 57.6557C67.9959 57.7636 68.061 57.8897 68.0969 58.0254C68.1328 58.161 68.1386 58.3029 68.114 58.441C67.9588 59.4349 67.4536 60.3405 66.6894 60.9947C65.9252 61.6488 64.9524 62.0083 63.9465 62.0083C62.9406 62.0083 61.9678 61.6488 61.2036 60.9947C60.4395 60.3405 59.9342 59.4349 59.779 58.441C59.7544 58.3029 59.7603 58.161 59.7961 58.0254C59.832 57.8897 59.8971 57.7636 59.9868 57.6557C60.0765 57.5478 60.1887 57.4608 60.3155 57.4007C60.4423 57.3407 60.5807 57.309 60.721 57.308H67.172Z" fill="white"/>
<path d="M121.479 56.305L118.607 54.735L117.036 51.862C116.897 51.608 116.692 51.3962 116.443 51.2486C116.194 51.101 115.91 51.0231 115.62 51.023C115.33 51.0234 115.046 51.1015 114.797 51.2493C114.548 51.3971 114.343 51.609 114.204 51.863L112.633 54.735L109.762 56.305C109.508 56.4439 109.295 56.6487 109.148 56.898C109 57.1472 108.922 57.4317 108.922 57.7215C108.922 58.0113 109 58.2958 109.148 58.545C109.295 58.7943 109.508 58.9991 109.762 59.138L112.634 60.709L114.204 63.579C114.343 63.8335 114.547 64.046 114.796 64.194C115.046 64.342 115.33 64.4201 115.62 64.42C115.91 64.4201 116.194 64.3422 116.444 64.1944C116.693 64.0466 116.898 63.8343 117.037 63.58L118.607 60.709L121.479 59.138C121.733 58.9989 121.945 58.7939 122.093 58.5447C122.24 58.2955 122.318 58.0112 122.318 57.7215C122.318 57.4318 122.24 57.1475 122.093 56.8983C121.945 56.649 121.733 56.4441 121.479 56.305Z" fill="#FFB95C"/>
<path d="M33.712 6.821L32.287 6.041L31.507 4.615C31.391 4.40306 31.22 4.22623 31.0122 4.10306C30.8043 3.97988 30.5671 3.91489 30.3255 3.91489C30.0839 3.91489 29.8467 3.97988 29.6388 4.10306C29.431 4.22623 29.26 4.40306 29.144 4.615L28.364 6.041L26.939 6.82C26.7268 6.9361 26.5498 7.10715 26.4265 7.3152C26.3032 7.52325 26.2381 7.76065 26.2381 8.0025C26.2381 8.24434 26.3032 8.48174 26.4265 8.68979C26.5498 8.89784 26.7268 9.06889 26.939 9.185L28.365 9.964L29.145 11.39C29.261 11.6019 29.432 11.7788 29.6398 11.9019C29.8477 12.0251 30.0849 12.0901 30.3265 12.0901C30.5681 12.0901 30.8053 12.0251 31.0132 11.9019C31.221 11.7788 31.392 11.6019 31.508 11.39L32.288 9.965L33.714 9.185C33.9259 9.06896 34.1028 8.89804 34.2259 8.69017C34.3491 8.4823 34.4141 8.24512 34.4141 8.0035C34.4141 7.76187 34.3491 7.52469 34.2259 7.31682C34.1028 7.10895 33.9259 6.93804 33.714 6.822L33.712 6.821Z" fill="#FFC67B"/>
<path d="M19.026 20.675L16.812 19.464L15.6 17.25C15.4716 17.0149 15.2822 16.8186 15.0518 16.6819C14.8214 16.5452 14.5584 16.473 14.2905 16.473C14.0226 16.473 13.7596 16.5452 13.5292 16.6819C13.2988 16.8186 13.1094 17.0149 12.981 17.25L11.769 19.465L9.553 20.675C9.31814 20.8038 9.12223 20.9933 8.98576 21.2238C8.84929 21.4542 8.77728 21.7172 8.77728 21.985C8.77728 22.2528 8.84929 22.5158 8.98576 22.7462C9.12223 22.9767 9.31814 23.1662 9.553 23.295L11.768 24.506L12.98 26.72C13.1084 26.9552 13.2978 27.1514 13.5282 27.2881C13.7586 27.4248 14.0216 27.497 14.2895 27.497C14.5574 27.497 14.8204 27.4248 15.0508 27.2881C15.2812 27.1514 15.4706 26.9552 15.599 26.72L16.811 24.505L19.026 23.3C19.2611 23.1715 19.4573 22.982 19.594 22.7515C19.7307 22.521 19.8028 22.258 19.8028 21.99C19.8028 21.722 19.7307 21.459 19.594 21.2285C19.4573 20.998 19.2611 20.8086 19.026 20.68V20.675Z" fill="#FFB95C"/>
<path d="M90.336 100.174C90.1002 100.174 89.8678 100.119 89.6575 100.012C89.4471 99.9056 89.2649 99.751 89.1255 99.5609C88.9861 99.3707 88.8935 99.1504 88.8552 98.9178C88.8169 98.6852 88.8339 98.4468 88.905 98.222C89.864 95.184 92.549 93.295 94.918 91.629C96.1509 90.8579 97.2744 89.9241 98.258 88.853C98.3789 88.6974 98.5292 88.5672 98.7004 88.4698C98.8716 88.3723 99.0603 88.3096 99.2558 88.285C99.4513 88.2605 99.6497 88.2748 99.8396 88.3269C100.03 88.3791 100.207 88.4681 100.363 88.589C100.519 88.7099 100.649 88.8602 100.746 89.0314C100.844 89.2026 100.906 89.3914 100.931 89.5868C100.955 89.7823 100.941 89.9807 100.889 90.1706C100.837 90.3606 100.748 90.5385 100.627 90.694C99.4701 92.0103 98.1285 93.1518 96.644 94.083C94.567 95.543 92.42 97.054 91.767 99.125C91.671 99.4293 91.4806 99.6951 91.2232 99.8838C90.9659 100.072 90.6551 100.174 90.336 100.174Z" fill="#ED4559"/>
<path d="M37.58 100.174C37.2611 100.174 36.9505 100.072 36.6934 99.8835C36.4362 99.6948 36.2459 99.4292 36.15 99.125C35.497 97.054 33.35 95.543 31.272 94.083C29.7876 93.152 28.4463 92.0105 27.29 90.694C27.1691 90.5385 27.0801 90.3606 27.0279 90.1706C26.9758 89.9807 26.9615 89.7823 26.986 89.5868C27.0106 89.3914 27.0733 89.2026 27.1708 89.0314C27.2682 88.8602 27.3985 88.7099 27.554 88.589C27.7096 88.4681 27.8874 88.3791 28.0774 88.3269C28.2673 88.2748 28.4657 88.2605 28.6612 88.285C28.8566 88.3096 29.0454 88.3723 29.2166 88.4698C29.3878 88.5672 29.5381 88.6974 29.659 88.853C30.6429 89.9242 31.7667 90.8579 33 91.629C35.369 93.295 38.054 95.184 39.012 98.222C39.083 98.4468 39.1001 98.6852 39.0618 98.9178C39.0235 99.1504 38.9309 99.3707 38.7915 99.5609C38.6521 99.751 38.4698 99.9056 38.2595 100.012C38.0492 100.119 37.8168 100.174 37.581 100.174H37.58Z" fill="#ED4559"/>
<path d="M55.78 50.2C55.5755 50.2001 55.3731 50.1583 55.1853 50.0773C54.9975 49.9963 54.8283 49.8778 54.688 49.729C54.1063 49.2718 53.407 48.9889 52.6711 48.9129C51.9351 48.837 51.1928 48.9712 50.53 49.3C50.214 49.5427 49.8145 49.6499 49.4195 49.598C49.0244 49.5462 48.6662 49.3395 48.4235 49.0235C48.1808 48.7075 48.0736 48.308 48.1255 47.913C48.1773 47.5179 48.384 47.1597 48.7 46.917C50.443 45.578 54.639 45.302 56.869 47.666C57.0715 47.8788 57.207 48.1463 57.2588 48.4354C57.3106 48.7245 57.2764 49.0224 57.1605 49.2923C57.0445 49.5621 56.8519 49.792 56.6065 49.9533C56.3611 50.1147 56.0737 50.2005 55.78 50.2Z" fill="#DD375F"/>
<path d="M72.113 50.2C71.8201 50.1999 71.5337 50.1141 71.289 49.9531C71.0443 49.7922 70.8521 49.5631 70.7361 49.2942C70.6201 49.0252 70.5853 48.7282 70.6361 48.4398C70.687 48.1514 70.8211 47.8841 71.022 47.671C73.251 45.308 77.449 45.583 79.191 46.922C79.4975 47.1674 79.6956 47.5233 79.7426 47.9131C79.7897 48.303 79.682 48.6957 79.4427 49.0071C79.2034 49.3184 78.8515 49.5235 78.4627 49.5782C78.0738 49.633 77.679 49.5331 77.363 49.3C76.7003 48.9711 75.958 48.8367 75.2221 48.9125C74.4862 48.9882 73.7868 49.271 73.205 49.728C73.0648 49.877 72.8956 49.9957 72.7078 50.0769C72.52 50.1581 72.3176 50.2 72.113 50.2Z" fill="#DD375F"/>
</svg>
