<svg width="108" height="108" viewBox="0 0 108 108" fill="none" xmlns="http://www.w3.org/2000/svg">
<g clip-path="url(#clip0)" filter="url(#filter0_d)">
<path d="M104 92.0455C104 96.3637 100.364 100 96.0455 100C93.7729 100 91.7273 99.0909 90.1363 97.5L64.6818 69.7727C63.7726 68.8635 63.7726 67.5 64.6818 66.5909L70.591 60.6817C71.5002 59.7725 72.8637 59.7725 73.7728 60.6817L101.5 86.3637C103.091 87.7274 104 90 104 92.0455Z" fill="#B06328"/>
<path d="M65.3514 65.8518L69.851 61.3522L63.1015 54.6027L58.6019 59.1023L65.3514 65.8518Z" fill="#B0C4D8"/>
<path d="M66.5 62.5L67.6363 63.6363L69.909 61.3637L63.0908 54.5455L58.5453 59.091L61.9545 62.5C63.3182 61.1363 65.1363 61.1363 66.5 62.5Z" fill="#99B4CD"/>
<path d="M38.0908 0C19.2273 0 4 15.2273 4 34.0908C4 52.9543 19.2273 68.1816 38.0908 68.1816C56.9543 68.1816 72.1816 52.9543 72.1816 34.0908C72.1816 15.2273 56.9545 0 38.0908 0ZM38.0908 61.3637C23.0908 61.3637 10.8182 49.091 10.8182 34.091C10.8182 19.091 23.0908 6.81816 38.0908 6.81816C53.0908 6.81816 65.3635 19.0908 65.3635 34.0908C65.3635 49.0908 53.0908 61.3637 38.0908 61.3637Z" fill="#C4D7E5"/>
<path d="M38.0908 61.3635C53.1531 61.3635 65.3635 49.1531 65.3635 34.0908C65.3635 19.0285 53.1531 6.81816 38.0908 6.81816C23.0286 6.81816 10.8182 19.0285 10.8182 34.0908C10.8182 49.1531 23.0286 61.3635 38.0908 61.3635Z" fill="#70B7E5"/>
<path d="M24.6819 37.2727C25.8182 28.6364 32.6363 21.8182 41.2727 20.6819H41.5C45.3637 20.2274 45.5908 14.7727 41.9545 14.091C39.6819 13.6365 37.409 13.6365 35.1363 13.8637C26.2727 15.2274 19.2272 22.2729 18.0908 30.9092C17.6363 33.1819 17.8635 35.6819 18.3182 37.7274C19 41.591 24.4545 41.1366 24.909 37.2729C24.6819 37.5 24.6819 37.2727 24.6819 37.2727Z" fill="#92C5EB"/>
<path d="M13.0908 36.3637C13.0908 21.3637 25.3635 9.09105 40.3635 9.09105C47.409 9.09105 53.5453 11.8184 58.5453 15.9092C53.5453 10.2274 46.2727 6.81839 38.0908 6.81839C23.0908 6.81839 10.8182 19.091 10.8182 34.091C10.8182 42.2729 14.4545 49.5455 19.909 54.5455C15.8182 49.5455 13.0908 43.4092 13.0908 36.3637Z" fill="#4C9CD6"/>
<path d="M38.0908 68.1818C56.9545 68.1818 72.1817 52.9545 72.1817 34.091C71.0453 34.091 69.909 35.0002 69.909 36.3637C69.4545 44.091 66.0453 51.1363 60.8182 56.3637C55.5908 61.8182 48.3182 65.2273 40.3637 65.9092C39 65.9092 38.0908 67.0455 38.0908 68.1818Z" fill="#B0C9DB"/>
<path d="M38.0908 0C19.2273 0 4 15.2273 4 34.0908C5.13633 34.0908 6.27266 33.1816 6.27266 31.8182C6.72734 24.3182 9.90918 17.5 14.6818 12.5C20.1363 6.81816 27.6363 2.95449 35.8182 2.27266C37.1818 2.27266 38.0908 1.13633 38.0908 0Z" fill="#E2E7F0"/>
<path d="M101.273 86.1363L99.909 85C101.045 86.3637 101.727 88.1818 101.727 90C101.727 92.9545 98.0908 94.0908 96.0453 92.0455L72.1818 68.1818C70.8182 66.8182 68.7727 66.8182 67.4092 68.1818L65.1365 70.4545L89.9092 97.0453C91.2729 98.409 93.091 99.5453 94.9092 99.7727C97.4092 100 99.9092 99.0908 101.5 97.5C103.091 95.9092 104 93.4092 103.773 90.9092C103.773 89.0908 102.636 87.5 101.273 86.1363Z" fill="#A35425"/>
<path d="M77.8637 70.4545C77.6363 70.4545 77.1818 70.4545 76.9545 70.2271L71.2727 64.5453C70.8182 64.0908 70.8182 63.409 71.2727 62.9545C71.7272 62.5 72.409 62.5 72.8635 62.9545L78.5453 68.6363C78.9998 69.0908 78.9998 69.7726 78.5453 70.2271C78.5455 70.4545 78.0908 70.4545 77.8637 70.4545Z" fill="#C97629"/>
</g>
<defs>
<filter id="filter0_d" x="0" y="0" width="108" height="108" filterUnits="userSpaceOnUse" color-interpolation-filters="sRGB">
<feFlood flood-opacity="0" result="BackgroundImageFix"/>
<feColorMatrix in="SourceAlpha" type="matrix" values="0 0 0 0 0 0 0 0 0 0 0 0 0 0 0 0 0 0 127 0"/>
<feOffset dy="4"/>
<feGaussianBlur stdDeviation="2"/>
<feColorMatrix type="matrix" values="0 0 0 0 0 0 0 0 0 0 0 0 0 0 0 0 0 0 0.25 0"/>
<feBlend mode="normal" in2="BackgroundImageFix" result="effect1_dropShadow"/>
<feBlend mode="normal" in="SourceGraphic" in2="effect1_dropShadow" result="shape"/>
</filter>
<clipPath id="clip0">
<rect width="100" height="100" fill="white" transform="translate(4)"/>
</clipPath>
</defs>
</svg>
